<svg width="79" height="79" viewBox="0 0 79 79" fill="none" xmlns="http://www.w3.org/2000/svg">
<path d="M78.7898 33.2974V34.5884C77.4988 34.6314 76.509 34.8036 75.8204 35.1048C75.1319 35.363 74.6585 35.8794 74.4003 36.6541C74.1851 37.3856 74.0775 38.5476 74.0775 40.1398V72.1575C74.0775 73.7067 74.2066 74.8687 74.4648 75.6433C74.723 76.4179 75.1749 76.9343 75.8204 77.1925C76.509 77.4507 77.4988 77.6229 78.7898 77.7089V79C77.5418 78.9139 75.928 78.8709 73.9484 78.8709C72.0119 78.8278 70.0323 78.8063 68.0096 78.8063C65.8149 78.8063 63.7492 78.8278 61.8127 78.8709C59.9192 78.8709 58.3699 78.9139 57.165 79V77.7089C58.6281 77.6229 59.7255 77.4507 60.4571 77.1925C61.2317 76.9343 61.7481 76.4179 62.0063 75.6433C62.2645 74.8687 62.3936 73.7067 62.3936 72.1575V37.4287L62.9746 37.3641L46.8367 79H45.8039L27.9876 37.4932V67.3807C27.9876 70.0058 28.1167 72.0284 28.3749 73.4485C28.6331 74.8256 29.2141 75.8154 30.1178 76.4179C31.0215 77.0204 32.4417 77.4507 34.3782 77.7089V79C33.5605 78.9139 32.4632 78.8709 31.0861 78.8709C29.752 78.8278 28.4825 78.8063 27.2775 78.8063C26.3308 78.8063 25.341 78.8278 24.3081 78.8709C23.3183 78.8709 22.4792 78.9139 21.7906 79V77.7089C23.1677 77.4507 24.179 77.0419 24.8245 76.4825C25.5131 75.88 25.965 74.9547 26.1801 73.7067C26.3953 72.4157 26.5029 70.6513 26.5029 68.4135V40.1398C26.5029 38.5476 26.3953 37.3856 26.1801 36.6541C25.965 35.8794 25.5131 35.363 24.8245 35.1048C24.136 34.8036 23.1247 34.6314 21.7906 34.5884V33.2974C22.4792 33.3404 23.3183 33.3834 24.3081 33.4265C25.341 33.4695 26.3308 33.491 27.2775 33.491C29.4723 33.491 31.581 33.4695 33.6036 33.4265C35.6262 33.3834 37.4552 33.3404 39.0905 33.2974L52.259 64.024L50.4516 65.8314L62.9101 33.491C63.7277 33.491 64.5669 33.491 65.4276 33.491C66.3313 33.491 67.192 33.491 68.0096 33.491C70.0323 33.491 72.0119 33.4695 73.9484 33.4265C75.928 33.3834 77.5418 33.3404 78.7898 33.2974Z" fill="#4E3B31"/>
<path d="M11.5485 44C12.9369 44 14.0728 44.2193 14.9563 44.6578C15.8608 45.0744 16.6602 45.5678 17.3544 46.1378C17.7751 46.4667 18.0906 46.5106 18.301 46.2694C18.5324 46.0063 18.6901 45.4033 18.7743 44.4605L19.5 44.4605C19.4579 45.3156 19.4264 46.3681 19.4053 47.6179C19.3843 48.8677 19.3738 50.5122 19.3738 52.5514L18.6481 52.5514C18.5639 51.5208 18.4272 50.6218 18.2379 49.8544C18.0696 49.087 17.8171 48.4072 17.4806 47.8152C17.144 47.2232 16.6602 46.697 16.0291 46.2365C15.5453 45.8199 14.9984 45.502 14.3883 45.2827C13.7993 45.0415 13.1893 44.9209 12.5582 44.9209C11.4013 44.9209 10.4231 45.2608 9.62378 45.9405C8.84547 46.5983 8.2144 47.4754 7.73058 48.5717C7.2678 49.6461 6.93123 50.852 6.72087 52.1896C6.53155 53.5052 6.43689 54.8317 6.43689 56.1692C6.43689 57.5287 6.54207 58.8772 6.75242 60.2147C6.96278 61.5303 7.29935 62.7253 7.76213 63.7997C8.24595 64.8741 8.88754 65.7402 9.68689 66.398C10.4862 67.0338 11.4644 67.3518 12.6214 67.3518C13.2314 67.3518 13.8309 67.2421 14.4199 67.0229C15.0299 66.8036 15.5769 66.4857 16.0607 66.0691C16.9862 65.4113 17.6068 64.5561 17.9223 63.5037C18.2589 62.4293 18.5008 61.0369 18.6481 59.3267L19.3738 59.3267C19.3738 61.4535 19.3843 63.1748 19.4053 64.4904C19.4264 65.784 19.4579 66.8694 19.5 67.7464L18.7743 67.7464C18.6901 66.8036 18.5429 66.2116 18.3325 65.9704C18.1432 65.7292 17.8171 65.7621 17.3544 66.0691C16.576 66.6392 15.7451 67.1435 14.8616 67.582C13.9992 67.9986 12.8843 68.2069 11.517 68.2069C9.2241 68.2069 7.20469 67.7355 5.45873 66.7926C3.73381 65.8498 2.38754 64.4904 1.4199 62.7143C0.473298 60.9383 -2.58779e-06 58.8004 -2.15074e-06 56.3008C-1.72136e-06 53.845 0.494335 51.6962 1.48301 49.8544C2.47168 48.0126 3.82848 46.5764 5.5534 45.5458C7.29935 44.5153 9.29773 44 11.5485 44Z" fill="#4E3B31"/>
<path d="M34.5058 3.07391C35.5802 3.00331 36.6626 2.99585 37.7286 3.06734C37.9447 3.08333 38.1593 3.15864 38.3275 3.30111C38.4955 3.44334 38.6033 3.63851 38.6282 3.85007C38.6531 4.06177 38.5933 4.27676 38.4628 4.45419C38.3322 4.63181 38.1413 4.75491 37.9348 4.82061C36.9822 5.13064 36.0296 5.47474 35.1 5.83514C31.4297 7.28628 27.7696 8.97348 25.4157 11.223C24.1788 12.4327 23.5848 13.7212 23.6756 15.2095C23.5468 16.3272 26.0687 18.3192 28.5571 19.5467C31.121 20.8763 33.9103 22.0043 36.7167 23.203C39.5245 24.4088 42.3741 25.6173 45.1383 27.2946C46.5054 28.1462 47.8761 29.099 49.0185 30.4971C50.1856 31.8222 50.8391 34.1235 50.1341 35.8731C49.7042 37.08 49.0443 37.9429 48.2614 38.7998C48.1055 38.9651 47.8938 39.0726 47.6651 39.0914C47.4366 39.1101 47.2112 39.0396 47.0367 38.895C46.8622 38.7504 46.7514 38.542 46.7274 38.3139C46.7033 38.0859 46.7688 37.8581 46.9021 37.6743C47.4894 36.8587 47.8984 36.082 48.0755 35.2729C48.656 32.9752 46.1526 31.263 43.626 30.0184C41.0309 28.7558 38.188 27.8007 35.3279 26.8014C32.4573 25.799 29.554 24.8223 26.6253 23.4643C23.9463 21.9772 19.9669 20.7922 19.0396 15.5405C18.7364 12.6312 20.2135 9.62952 22.1285 7.85435C25.798 4.45286 30.2519 3.41673 34.5058 3.07391Z" fill="#4E3B31"/>
<path d="M66.4533 12.5905C66.1203 12.5024 65.78 12.4441 65.4388 12.4244C65.3695 12.4211 65.2961 12.4463 65.2322 12.506C65.1683 12.5656 65.1194 12.6536 65.0953 12.7536C65.0712 12.8537 65.0735 12.9596 65.101 13.0511C65.1285 13.1428 65.1792 13.2113 65.2391 13.2532C65.5153 13.4498 65.7889 13.6626 66.054 13.8821C67.0985 14.7622 68.1216 15.7548 68.6901 16.9506C68.9867 17.5922 69.0748 18.2389 68.9319 18.9468C68.8866 19.4882 67.9393 20.3143 67.0613 20.7761C66.1517 21.2829 65.1866 21.6819 64.2106 22.1138C63.2337 22.549 62.2434 22.9835 61.244 23.6466C60.748 23.9852 60.2431 24.372 59.7759 24.9834C59.3066 25.5587 58.924 26.6273 59.0116 27.5004C59.0543 28.0998 59.1958 28.5462 59.3766 28.9959C59.413 29.0829 59.4714 29.1451 59.542 29.1656C59.6125 29.1862 59.6889 29.1638 59.755 29.1034C59.821 29.043 59.8719 28.9488 59.897 28.8409C59.9221 28.733 59.919 28.6206 59.8911 28.5259C59.7688 28.1058 59.6997 27.7134 59.706 27.3171C59.6997 26.1879 60.6197 25.4949 61.511 25.0269C62.4253 24.5537 63.3941 24.2402 64.3716 23.9064C65.3527 23.5717 66.3421 23.2509 67.3688 22.749C68.3267 22.1725 69.6711 21.8065 70.3666 19.3395C70.6855 17.9622 70.4509 16.4508 69.9842 15.5043C69.0898 13.6906 67.7667 12.9696 66.4533 12.5905Z" fill="#4E3B31"/>
<path d="M51.4961 0.783791C51.9963 0.770217 52.4943 0.814531 52.9774 0.929986C53.0752 0.95475 53.1668 1.03349 53.2307 1.1712C53.2946 1.30869 53.3258 1.49156 53.3175 1.68545C53.3091 1.87946 53.2615 2.07247 53.1849 2.22792C53.1083 2.38355 53.0091 2.48666 52.9081 2.53676C52.4414 2.77418 51.9715 3.04264 51.5106 3.32703C49.6885 4.47556 47.8489 5.83959 46.5568 7.7775C45.8752 8.82105 45.4817 9.96666 45.3841 11.3266C45.2203 12.3386 46.1925 14.2723 47.2209 15.5079C48.2744 16.84 49.4504 17.9992 50.6276 19.2236C51.8048 20.4545 53.0008 21.6899 54.1139 23.3482C54.6622 24.1885 55.2028 25.1211 55.5968 26.4486C56.009 27.7107 56.0938 29.8378 55.6061 31.3982C55.2956 32.4773 54.9116 33.2321 54.4717 33.9757C54.3846 34.1189 54.2773 34.2069 54.1705 34.2131C54.0637 34.2194 53.9668 34.1446 53.9001 34.0046C53.8335 33.8646 53.8021 33.6696 53.8124 33.4607C53.8227 33.2518 53.8741 33.0475 53.9526 32.8863C54.2987 32.1711 54.5594 31.483 54.7165 30.7543C55.1983 28.6887 54.2084 27.0109 53.1641 25.7579C52.0899 24.4853 50.8732 23.4811 49.6526 22.4358C48.4276 21.3871 47.1851 20.3604 45.9666 18.9851C44.875 17.504 43.1575 16.2368 43.2231 11.4092C43.3562 8.74481 44.3158 6.08039 45.3618 4.55382C47.3662 1.62871 49.5095 0.895207 51.4961 0.783791Z" fill="#4E3B31"/>
</svg>
